# xmcd CD database file
#
# Track frame offsets:
#	150
#	12066
#	24046
#	38274
#	50781
#	62946
#	75519
#	86521
#	99906
#	111006
#	123304
#	137906
#
# Disc length: 1963 seconds
#
# Revision: 0
# Processed by: cddbd v1.4PL0 Copyright (c) Steve Scherf et al.
# Submitted via: CDex 1.40Beta6
#
DISCID=8607a90c
DTITLE=The platters - Gran selección
DYEAR=2001
DGENRE=Blues
TTITLE0=Only you
TTITLE1=The great pretender
TTITLE2=Harbour lights
TTITLE3=My prayer
TTITLE4=Smoke gets in your eyes
TTITLE5=Twilight time
TTITLE6=Red sails in the sunset
TTITLE7=I'm sorry
TTITLE8=You've got that magic touch
TTITLE9=Crying in the chapel
TTITLE10=Loving you
TTITLE11=Voo vae ah-vee
EXTD=
EXTT0=
EXTT1=
EXTT2=
EXTT3=
EXTT4=
EXTT5=
EXTT6=
EXTT7=
EXTT8=
EXTT9=
EXTT10=
EXTT11=
PLAYORDER=
